<svg width="16" height="16" viewBox="0 0 16 16" fill="none" xmlns="http://www.w3.org/2000/svg">
<path d="M1.19838 14.7981C0.933873 14.543 0.933873 14.099 1.19838 13.8345L7.03644 7.99648L1.19838 2.15842C0.933873 1.90336 0.933873 1.46881 1.19838 1.19486C1.46289 0.930349 1.89744 0.939795 2.16194 1.19486L8 7.03291L13.8381 1.19486C14.1026 0.939795 14.5371 0.939795 14.8016 1.19486C15.0661 1.45936 15.0661 1.90336 14.8016 2.15842L8.96356 7.99648L14.8016 13.8345C15.0661 14.099 15.0661 14.5336 14.8016 14.7981C14.5371 15.072 14.1026 15.0626 13.8381 14.7981L8 8.96004L2.16194 14.7981C1.89744 15.0626 1.46289 15.0626 1.19838 14.7981Z" fill="white" fill-opacity="0.8"/>
</svg>
