<svg width="16" height="16" viewBox="0 0 16 16" fill="none" xmlns="http://www.w3.org/2000/svg">
<path fill-rule="evenodd" clip-rule="evenodd" d="M4.8335 2.60418C4.8335 2.36256 5.02937 2.16668 5.271 2.16668H13.396C13.6376 2.16668 13.8335 2.36256 13.8335 2.60418V10.7292C13.8335 10.9708 13.6376 11.1667 13.396 11.1667H12.1667V5.27085C12.1667 4.47694 11.5232 3.83335 10.7292 3.83335H4.8335V2.60418ZM3.8335 3.83335V2.60418C3.8335 1.81027 4.47709 1.16668 5.271 1.16668H13.396C14.1899 1.16668 14.8335 1.81027 14.8335 2.60418V10.7292C14.8335 11.5231 14.1899 12.1667 13.396 12.1667H12.1667V13.3959C12.1667 14.1898 11.5232 14.8334 10.7292 14.8334H2.60425C1.81034 14.8334 1.16675 14.1898 1.16675 13.3959V5.27085C1.16675 4.47694 1.81034 3.83335 2.60425 3.83335H3.8335ZM2.16675 5.27085C2.16675 5.02923 2.36262 4.83335 2.60425 4.83335H10.7292C10.9709 4.83335 11.1667 5.02923 11.1667 5.27085V13.3959C11.1667 13.6375 10.9709 13.8334 10.7292 13.8334H2.60425C2.36262 13.8334 2.16675 13.6375 2.16675 13.3959V5.27085Z" fill="white" fill-opacity="0.85"/>
</svg>
