<svg width="16" height="16" viewBox="0 0 16 16" fill="none" xmlns="http://www.w3.org/2000/svg">
<path fill-rule="evenodd" clip-rule="evenodd" d="M8.49731 2.00002C8.49731 1.72387 8.27346 1.50002 7.99731 1.50002C7.72117 1.50002 7.49731 1.72387 7.49731 2.00002V9.45689L5.35355 7.31313C5.15829 7.11787 4.84171 7.11787 4.64645 7.31313C4.45118 7.5084 4.45118 7.82498 4.64645 8.02024L7.61425 10.988C7.70597 11.0973 7.84354 11.1667 7.99731 11.1667C7.99745 11.1667 7.99758 11.1667 7.99772 11.1667C8.12644 11.1673 8.25534 11.1185 8.35355 11.0202L11.3536 8.02024C11.5488 7.82498 11.5488 7.5084 11.3536 7.31313C11.1583 7.11787 10.8417 7.11787 10.6464 7.31313L8.49731 9.46227V2.00002ZM14 7.50002C14.2761 7.50002 14.5 7.72387 14.5 8.00002V14C14.5 14.2762 14.2761 14.5 14 14.5H2C1.72386 14.5 1.5 14.2762 1.5 14V8.00278C1.5 7.72664 1.72386 7.50278 2 7.50278C2.27614 7.50278 2.5 7.72664 2.5 8.00278V13.5H13.5V8.00002C13.5 7.72387 13.7239 7.50002 14 7.50002Z" fill="white" fill-opacity="0.85"/>
</svg>
